#!OML:ASF H:\ManfredETheater\Project 1\Capture day 1\Session 1\subject.ASF
:FULLY-SPECIFIED
:DEGREES
165
root -4.88917 14.0304 -19.3919 -198.737 -36.2624 -173.87
lowerback 22.4861 -0.557995 -2.59741
upperback 1.067 -1.51652 1.01141
thorax -11.3482 -0.636737 3.11867
lowerneck -18.1758 -4.26592 -6.39257
upperneck 15.358 -5.74935 7.78867
head 8.16965 -2.38097 2.93335
rclavicle 5.57343e-014 1.35174e-014
rhumerus -38.3266 2.28838 -87.4609
rradius 63.4709
rwrist -9.11798
rhand -30.54 8.33761
rfingers 7.12502
rthumb -3.83896 -21.6076
lclavicle 5.57343e-014 1.35174e-014
lhumerus -32.0718 -24.6191 104.934
lradius 87.5068
lwrist -15.2741
lhand -29.5035 -10.4217
lfingers 7.12502
lthumb -2.83797 19.5392
rfemur -41.6739 -4.51359 23.9194
rtibia 83.1336
rfoot -20.1345 -8.68634
rtoes -28.9282
lfemur -39.5605 -8.53789 -6.47856
ltibia 105.641
lfoot -0.200605 -31.2382
ltoes -1.49227
166
root -4.94823 14.0957 -19.5446 -198.412 -36.508 -173.936
lowerback 22.2958 -0.625113 -2.6357
upperback 0.920769 -1.61057 0.878219
thorax -11.4054 -0.672825 3.01715
lowerneck -18.3028 -4.35599 -6.53459
upperneck 15.4126 -5.8391 7.83479
head 8.22283 -2.42327 2.95947
rclavicle 6.85807e-015 9.54166e-015
rhumerus -37.7544 3.49974 -87.8327
rradius 64.2297
rwrist -8.96618
rhand -30.4938 7.81618
rfingers 7.12502
rthumb -3.79436 -22.1298
lclavicle 6.85807e-015 9.54166e-015
lhumerus -32.0352 -25.6832 105.273
lradius 91.0022
lwrist -13.4669
lhand -29.7573 -10.3695
lfingers 7.12502
lthumb -3.08308 19.5879
rfemur -41.0768 -4.53556 23.9894
rtibia 83.0031
rfoot -20.7226 -9.19417
rtoes -29.2946
lfemur -39.7123 -8.23844 -6.41895
ltibia 105.537
lfoot -2.33008 -29.6371
ltoes -3.75401
167
root -5.00719 14.1677 -19.6883 -198.061 -36.7228 -174.006
lowerback 22.1117 -0.690348 -2.61401
upperback 0.790354 -1.68892 0.74778
thorax -11.4509 -0.706295 2.87927
lowerneck -18.4371 -4.44266 -6.67652
upperneck 15.4204 -5.91181 7.85067
head 8.25941 -2.45987 2.97721
rclavicle -5.10877e-014 -3.18055e-015
rhumerus -37.1936 4.70394 -88.0869
rradius 64.9908
rwrist -8.75164
rhand -30.411 7.38543
rfingers 7.12502
rthumb -3.7144 -22.562
lclavicle -5.10877e-014 -3.18055e-015
lhumerus -32.036 -26.5984 105.54
lradius 94.2709
lwrist -10.881
lhand -29.9769 -10.1953
lfingers 7.12502
lthumb -3.29511 19.759
rfemur -40.4791 -4.51946 24.0487
rtibia 82.755
rfoot -21.2362 -9.64658
rtoes -29.5495
lfemur -39.8562 -7.80453 -6.47261
ltibia 105.349
lfoot -4.85099 -27.3472
ltoes -6.11674
168
root -5.06631 14.2458 -19.8233 -197.672 -36.9144 -174.097
lowerback 21.9342 -0.747675 -2.55396
upperback 0.670862 -1.74891 0.618418
thorax -11.4899 -0.734423 2.71497
lowerneck -18.5633 -4.52861 -6.80603
upperneck 15.3788 -5.97563 7.83569
head 8.27596 -2.49455 2.98336
rclavicle -1.6201e-014 -6.36111e-015
rhumerus -36.6539 5.86661 -88.224
rradius 65.757
rwrist -8.48253
rhand -30.3046 7.06946
rfingers 7.12502
rthumb -3.6116 -22.8797
lclavicle -1.6201e-014 -6.36111e-015
lhumerus -32.0782 -27.3688 105.748
lradius 97.2959
lwrist -7.88796
lhand -30.202 -9.983
lfingers 7.12502
lthumb -3.51252 19.9678
rfemur -39.8888 -4.47551 24.0816
rtibia 82.3982
rfoot -21.6773 -10.055
rtoes -29.7173
lfemur -40.0014 -7.25822 -6.65932
ltibia 105.029
lfoot -7.33852 -24.5631
ltoes -7.91725
169
root -5.12563 14.33 -19.9505 -197.236 -37.1024 -174.22
lowerback 21.7551 -0.796996 -2.48575
upperback 0.564065 -1.79746 0.49218
thorax -11.5147 -0.758864 2.54576
lowerneck -18.6928 -4.61152 -6.91956
upperneck 15.2991 -6.02962 7.79333
head 8.27807 -2.52608 2.97861
rclavicle -1.04859e-014 -5.56597e-015
rhumerus -36.1294 6.97505 -88.2507
rradius 66.5135
rwrist -8.14338
rhand -30.221 6.85828
rfingers 7.12502
rthumb -3.53084 -23.0922
lclavicle -1.04859e-014 -5.56597e-015
lhumerus -32.1606 -27.9752 105.898
lradius 100.056
lwrist -4.91715
lhand -30.4327 -9.80666
lfingers 7.12502
lthumb -3.73531 20.1403
rfemur -39.3043 -4.4228 24.0714
rtibia 81.9381
rfoot -22.0616 -10.4211
rtoes -29.7892
lfemur -40.1503 -6.64994 -6.98884
ltibia 104.534
lfoot -9.54089 -21.6334
ltoes -8.7929
170
root -5.1849 14.4203 -20.0707 -196.76 -37.3164 -174.373
lowerback 21.5768 -0.84623 -2.42912
upperback 0.469407 -1.84941 0.372682
thorax -11.5255 -0.78518 2.39166
lowerneck -18.8216 -4.69191 -7.01662
upperneck 15.1868 -6.07767 7.73181
head 8.26747 -2.5557 2.96524
rclavicle -3.1408e-014 -9.54166e-015
rhumerus -35.6127 8.02035 -88.1755
rradius 67.2451
rwrist -7.7477
rhand -30.1788 6.73249
rfingers 7.12502
rthumb -3.49016 -23.2187
lclavicle -3.1408e-014 -9.54166e-015
lhumerus -32.29 -28.3969 105.989
lradius 102.527
lwrist -2.3542
lhand -30.6845 -9.75559
lfingers 7.12502
lthumb -3.97848 20.187
rfemur -38.7164 -4.38817 24.0132
rtibia 81.3773
rfoot -22.4022 -10.7554
rtoes -29.7785
lfemur -40.308 -6.04741 -7.45129
ltibia 103.829
lfoot -11.3992 -18.9358
ltoes -8.79793
